<svg viewBox="-126.83898591549297 -134.0137433768877 253.67797183098594 234.0137433768877" style="width: 0px; height: 0px; max-height: 100%;" xmlns="http://www.w3.org/2000/svg" xmlns:xlink="http://www.w3.org/1999/xlink" version="1.1" class="jsx-2263963463 artboard-inner"><g transform="translate(-130.44461971830987 98.19718309859155) scale(1.6025039123630673)" fill="#232323"><g id="line1"><path d="M15.750-36L15.750-55.125C15.750-56.133 15.563-57.023 15.188-57.797C14.812-58.570 14.309-59.215 13.676-59.730C13.043-60.246 12.322-60.633 11.514-60.891C10.705-61.148 9.867-61.277 9-61.277C8.180-61.277 7.371-61.160 6.574-60.926C5.777-60.691 5.057-60.328 4.412-59.836C3.768-59.344 3.246-58.705 2.848-57.920C2.449-57.135 2.250-56.203 2.250-55.125L2.250-5.625C2.250-5.344 2.285-4.834 2.355-4.096C2.426-3.357 2.672-2.602 3.094-1.828C3.516-1.055 4.184-0.369 5.098 0.229C6.012 0.826 7.313 1.125 9 1.125C10.688 1.125 11.988 0.826 12.902 0.229C13.816-0.369 14.484-1.055 14.906-1.828C15.328-2.602 15.574-3.357 15.645-4.096C15.715-4.834 15.750-5.344 15.750-5.625L15.750-29.250L11.250-29.250L11.250-5.625C11.250-5.344 11.238-5.010 11.215-4.623C11.191-4.236 11.109-3.867 10.969-3.516C10.828-3.164 10.605-2.865 10.301-2.619C9.996-2.373 9.563-2.250 9-2.250C8.438-2.250 8.004-2.373 7.699-2.619C7.395-2.865 7.172-3.164 7.031-3.516C6.891-3.867 6.809-4.236 6.785-4.623C6.762-5.010 6.750-5.344 6.750-5.625L6.750-55.125C6.750-55.688 6.814-56.150 6.943-56.514C7.072-56.877 7.242-57.158 7.453-57.357C7.664-57.557 7.904-57.697 8.174-57.779C8.443-57.861 8.719-57.902 9-57.902C9.281-57.902 9.557-57.861 9.826-57.779C10.096-57.697 10.336-57.557 10.547-57.357C10.758-57.158 10.928-56.877 11.057-56.514C11.186-56.150 11.250-55.688 11.250-55.125L11.250-36Z"></path><path d="M32.368-5.063L32.368-48.938C32.368-49.875 32.186-50.695 31.823-51.398C31.459-52.102 30.979-52.682 30.381-53.139C29.784-53.596 29.098-53.936 28.325-54.158C27.551-54.381 26.754-54.492 25.934-54.492C25.067-54.492 24.211-54.369 23.368-54.123C22.524-53.877 21.768-53.520 21.100-53.051C20.432-52.582 19.893-52.002 19.483-51.311C19.073-50.619 18.868-49.828 18.868-48.938L18.868-5.063C18.868-4.148 19.073-3.334 19.483-2.619C19.893-1.904 20.426-1.307 21.082-0.826C21.739-0.346 22.489 0.018 23.332 0.264C24.176 0.510 25.032 0.633 25.899 0.633C26.719 0.633 27.516 0.521 28.289 0.299C29.063 0.076 29.754-0.270 30.364-0.738C30.973-1.207 31.459-1.799 31.823-2.514C32.186-3.229 32.368-4.078 32.368-5.063ZM27.868-48.938L27.868-5.063C27.868-4.266 27.668-3.697 27.270-3.357C26.872-3.018 26.414-2.848 25.899-2.848C25.594-2.848 25.295-2.900 25.002-3.006C24.709-3.111 24.440-3.258 24.194-3.445C23.948-3.633 23.748-3.867 23.596-4.148C23.444-4.430 23.368-4.734 23.368-5.063L23.368-48.938C23.368-49.266 23.444-49.564 23.596-49.834C23.748-50.104 23.948-50.338 24.194-50.537C24.440-50.736 24.715-50.889 25.020-50.994C25.325-51.100 25.629-51.152 25.934-51.152C26.450-51.152 26.901-50.982 27.288-50.643C27.674-50.303 27.868-49.734 27.868-48.938Z"></path><path d="M48.985 0L48.985-54L45.083-54L45.083-21.375L38.860-54L35.485-54L35.485 0L39.423 0L39.423-31.500L45.610 0Z"></path><path d="M56.603-29.250L55.478-54L50.978-54L54.353 0L59.978 0L63.353-54L58.853-54L57.728-29.250L57.200-5.625Z"></path><path d="M74.345-50.625L74.345-54L65.345-54L65.345 0L74.345 0L74.345-3.375L69.845-3.375L69.845-27L74.345-27L74.345-30.375L69.845-30.375L69.845-50.625Z"></path><path d="M88.713-31.500L88.713-49.500C88.713-50.766 88.420-51.709 87.834-52.330C87.248-52.951 86.410-53.385 85.320-53.631C84.231-53.877 82.924-54 81.401-54L76.338-54L76.338 0L80.838 0L80.838-25.875C81.401-25.875 81.893-25.863 82.315-25.840C82.736-25.816 83.088-25.734 83.369-25.594C83.651-25.453 83.861-25.230 84.002-24.926C84.143-24.621 84.213-24.188 84.213-23.625L84.213 0L88.713 0L88.713-23.625C88.713-24.750 88.432-25.617 87.869-26.227C87.307-26.836 86.463-27.293 85.338-27.598C86.463-27.855 87.307-28.289 87.869-28.898C88.432-29.508 88.713-30.375 88.713-31.500ZM84.213-48.375L84.213-31.500C84.213-30.938 84.143-30.504 84.002-30.199C83.861-29.895 83.651-29.672 83.369-29.531C83.088-29.391 82.736-29.309 82.315-29.285C81.893-29.262 81.401-29.250 80.838-29.250L80.838-50.625C81.401-50.625 81.893-50.613 82.315-50.590C82.736-50.566 83.088-50.484 83.369-50.344C83.651-50.203 83.861-49.980 84.002-49.676C84.143-49.371 84.213-48.938 84.213-48.375Z"></path><path d="M96.331-5.063L96.331-49.535C96.331-50.379 96.506-50.959 96.858-51.275C97.210-51.592 97.596-51.750 98.018-51.750C98.440-51.750 98.827-51.592 99.178-51.275C99.530-50.959 99.706-50.379 99.706-49.535L99.706-31.500L104.206-31.500L104.206-49.535C104.206-50.520 104.030-51.363 103.678-52.066C103.327-52.770 102.858-53.350 102.272-53.807C101.686-54.264 101.024-54.598 100.286-54.809C99.547-55.020 98.792-55.125 98.018-55.125C97.245-55.125 96.489-55.020 95.751-54.809C95.012-54.598 94.350-54.264 93.764-53.807C93.178-53.350 92.710-52.764 92.358-52.049C92.006-51.334 91.831-50.484 91.831-49.500L91.831-5.063C91.831-4.078 92.006-3.229 92.358-2.514C92.710-1.799 93.178-1.213 93.764-0.756C94.350-0.299 95.012 0.035 95.751 0.246C96.489 0.457 97.245 0.563 98.018 0.563C98.792 0.563 99.547 0.457 100.286 0.246C101.024 0.035 101.686-0.299 102.272-0.756C102.858-1.213 103.327-1.799 103.678-2.514C104.030-3.229 104.206-4.078 104.206-5.063L104.206-27L98.581-27L98.581-23.625L99.706-23.625L99.706-5.063C99.706-4.219 99.530-3.633 99.178-3.305C98.827-2.977 98.440-2.813 98.018-2.813C97.596-2.813 97.210-2.977 96.858-3.305C96.506-3.633 96.331-4.219 96.331-5.063Z"></path><path d="M116.323-50.625L116.323-54L107.323-54L107.323 0L116.323 0L116.323-3.375L111.823-3.375L111.823-27L116.323-27L116.323-30.375L111.823-30.375L111.823-50.625Z"></path><path d="M131.816 0L131.816-54L127.913-54L127.913-21.375L121.691-54L118.316-54L118.316 0L122.253 0L122.253-31.500L128.441 0Z"></path><path d="M148.433-31.500L148.433-48.938C148.433-49.898 148.240-50.736 147.853-51.451C147.467-52.166 146.957-52.764 146.324-53.244C145.691-53.725 144.976-54.082 144.179-54.316C143.383-54.551 142.562-54.668 141.719-54.668C140.875-54.668 140.043-54.545 139.222-54.299C138.402-54.053 137.676-53.695 137.043-53.227C136.410-52.758 135.900-52.160 135.513-51.434C135.127-50.707 134.933-49.875 134.933-48.938L134.933-5.063C134.933-4.102 135.121-3.264 135.496-2.549C135.871-1.834 136.375-1.236 137.008-0.756C137.640-0.275 138.355 0.082 139.152 0.316C139.949 0.551 140.769 0.668 141.613 0.668C142.457 0.668 143.289 0.545 144.109 0.299C144.929 0.053 145.656-0.311 146.289-0.791C146.922-1.271 147.437-1.869 147.836-2.584C148.234-3.299 148.433-4.125 148.433-5.063L148.433-24.750L143.933-24.750L143.933-5.063C143.933-4.266 143.734-3.691 143.336-3.340C142.937-2.988 142.480-2.813 141.965-2.813C141.660-2.813 141.361-2.865 141.068-2.971C140.775-3.076 140.506-3.229 140.260-3.428C140.013-3.627 139.814-3.867 139.662-4.148C139.510-4.430 139.433-4.734 139.433-5.063L139.433-48.938C139.433-49.266 139.510-49.564 139.662-49.834C139.814-50.104 140.013-50.338 140.260-50.537C140.506-50.736 140.775-50.889 141.068-50.994C141.361-51.100 141.660-51.152 141.965-51.152C142.480-51.152 142.937-50.982 143.336-50.643C143.734-50.303 143.933-49.734 143.933-48.938L143.933-31.500Z"></path><path d="M160.551-50.625L160.551-54L151.551-54L151.551 0L160.551 0L160.551-3.375L156.051-3.375L156.051-27L160.551-27L160.551-30.375L156.051-30.375L156.051-50.625Z"></path></g></g><g transform="translate(-72.231768989373 -154.23863792239365) scale(1.4446353246789958)" id="logomark"><g fill="#232323"><path d="M7.1 27.2l39 58.8H59.3l.7-1.6-2-2.9L29.6 37H38l20.2 30.8 28.1-48.9 4 6.2-32 56.4 1.9 2.9L93.9 25 88 15.7 86.9 14H13.1l-6 9.9-1 1.7 1 1.6zM23 33v.6h.1l.4.4 31.7 48.8-7.7-.1-36.7-55.5h54.4l-3.4 5.9V33H23zm37.1 4l-8.5 15.4L41.5 37h18.6zM14.9 17.1h68.7L58 61.6 53.6 55l10-18 .4-1 1.7-3.2 4.8-8.8H10.7l4.2-6.9z"></path></g></g></svg>